<?xml version="1.0" encoding="UTF-8"?>
<svg xmlns="http://www.w3.org/2000/svg" xmlns:xlink="http://www.w3.org/1999/xlink" width="391.4pt" height="533.1pt" viewBox="0 0 391.4 533.1" version="1.1">
<g id="surface1">
<path style=" stroke:none;fill-rule:evenodd;fill:rgb(0%,49.804688%,25.87738%);fill-opacity:1;" d="M 272.578125 350.847656 C 276.878906 349.699219 283.835938 342.578125 287.90625 338.953125 L 295.3125 332.753906 C 298.789063 329.554688 299.636719 328.425781 301.199219 324.046875 C 303.453125 317.714844 302.117188 314.316406 300.851563 307.992188 C 294.992188 278.679688 290.410156 242.660156 284.316406 212.746094 L 267.71875 115.613281 C 264.308594 116.523438 265.078125 116.890625 262.601563 119.246094 L 252.457031 127.570313 C 240.472656 137.722656 235.808594 140.835938 239.269531 158.644531 L 255.917969 253.78125 C 257.765625 264.902344 259.253906 274.90625 261.324219 286.28125 Z M 272.578125 350.847656 "/>
<path style=" stroke:none;fill-rule:evenodd;fill:rgb(0%,0%,0%);fill-opacity:1;" d="M 318.265625 259.476563 C 324.636719 255.210938 329.15625 250.296875 335.347656 245.453125 C 353.371094 231.351563 348.679688 225.839844 344.382813 200.308594 L 318.710938 51.953125 C 318.300781 49.175781 318.847656 47.140625 317.070313 46.347656 C 315.359375 45.585938 310.542969 51.078125 308.6875 52.574219 C 281.589844 74.414063 285.722656 71.617188 293.261719 115.347656 C 293.902344 119.066406 294.625 123.921875 295.488281 128.671875 Z M 318.265625 259.476563 "/>
<path style=" stroke:none;fill-rule:evenodd;fill:rgb(0%,49.804688%,25.87738%);fill-opacity:1;" d="M 188.011719 217.679688 L 207.863281 333.910156 C 208.90625 339.65625 210.371094 344.644531 210.371094 350.847656 C 213.945313 349.890625 233.386719 332.574219 235.910156 329.726563 C 243.347656 321.328125 239.753906 310.753906 237.835938 301.023438 C 233.910156 281.140625 219.75 189.992188 217.175781 184.628906 L 192.257813 206.371094 C 190.351563 208.933594 188.011719 213.8125 188.011719 217.679688 Z M 188.011719 217.679688 "/>
<path style=" stroke:none;fill-rule:evenodd;fill:rgb(0%,0%,0%);fill-opacity:1;" d="M 341.59375 32.019531 C 341.59375 43.953125 343.792969 50.039063 345.617188 61.039063 L 354.925781 114.921875 C 355.785156 120.152344 356.523438 123.105469 357.195313 128.203125 C 357.929688 133.765625 359.089844 136.183594 359.089844 142.828125 C 364.121094 142.414063 368.679688 136.101563 372.554688 132.96875 C 374.402344 131.476563 374.929688 131.171875 376.835938 129.472656 C 391.03125 116.835938 391.496094 116.730469 388.257813 97.140625 C 387.460938 92.3125 386.632813 88.414063 385.75 83.121094 L 371.726563 -0.0546875 C 368.652344 0.765625 348.640625 17.785156 345.902344 20.777344 C 343.546875 23.351563 341.59375 27.480469 341.59375 32.019531 Z M 341.59375 32.019531 "/>
<path style=" stroke:none;fill-rule:evenodd;fill:rgb(92.96875%,10.984802%,14.109802%);fill-opacity:1;" d="M 64.566406 214.761719 C 64.566406 222.757813 69.042969 246.074219 70.664063 255.324219 C 71.699219 261.230469 73.109375 268.855469 74.144531 275.164063 L 81.234375 315.703125 C 83.230469 328.117188 79.691406 328.644531 95.234375 315.414063 C 113.039063 300.273438 114.546875 300.039063 110.152344 278.039063 L 98.679688 210.785156 C 96.914063 201.902344 95.726563 192.238281 93.726563 183.65625 C 90.300781 184.570313 92.035156 184.203125 89.5 186.234375 L 76.957031 197.019531 C 71.980469 201.644531 64.566406 205.390625 64.566406 214.761719 Z M 64.566406 214.761719 "/>
<path style=" stroke:none;fill-rule:evenodd;fill:rgb(92.96875%,10.984802%,14.109802%);fill-opacity:1;" d="M 145.246094 326.539063 L 161.527344 312.695313 C 175.175781 299.695313 176.210938 302.4375 172.597656 280.722656 L 155.9375 184.628906 C 151.128906 185.746094 132.117188 202.839844 129.824219 206.144531 C 125.839844 211.890625 125.839844 216.382813 127.179688 224.054688 Z M 145.246094 326.539063 "/>
<path style=" stroke:none;fill-rule:evenodd;fill:rgb(92.96875%,10.984802%,14.109802%);fill-opacity:1;" d="M 2.355469 214.761719 C 2.355469 219.160156 12.191406 276.15625 13.046875 277.945313 L 21.050781 271.367188 C 49.722656 245.8125 44.316406 256.402344 34.710938 197.960938 C 33.777344 192.28125 32.488281 188.613281 32.488281 182.6875 C 27.828125 183.074219 26.382813 186.433594 23.179688 188.929688 L 10.683594 199.761719 C 6.199219 203.199219 2.355469 207.972656 2.355469 214.761719 Z M 2.355469 214.761719 "/>
<path style=" stroke:none;fill-rule:evenodd;fill:rgb(0%,0%,0%);fill-opacity:1;" d="M 289.105469 439.296875 C 280.601563 439.296875 280.875 426.664063 289.105469 426.664063 C 296.40625 426.664063 297.417969 439.296875 289.105469 439.296875 Z M 125.804688 404.308594 C 125.804688 427.050781 121.429688 447.078125 139.414063 447.078125 L 267.71875 447.078125 C 274.421875 447.078125 275.023438 444.351563 279.382813 443.1875 C 292.785156 452.164063 302.714844 443.71875 302.714844 431.523438 C 302.714844 418.398438 282.617188 414.050781 276.460938 426.65625 C 274.011719 431.671875 276.910156 439.296875 267.71875 439.296875 L 138.441406 439.296875 C 136.101563 439.296875 135.582031 437.726563 133.582031 436.382813 L 133.582031 395.558594 C 131.390625 397.027344 125.804688 401.035156 125.804688 404.308594 Z M 125.804688 404.308594 "/>
<path style=" stroke:none;fill-rule:evenodd;fill:rgb(0%,0%,0%);fill-opacity:1;" d="M 180.238281 518.035156 C 181.109375 514.769531 184.425781 510.773438 186.460938 507.734375 C 188.28125 505.015625 190.890625 500.042969 192.875 498.59375 L 192.875 527.75 L 200.648438 527.75 L 200.648438 486.929688 C 200.648438 484.691406 199.972656 484.015625 197.734375 484.015625 C 191.507813 484.015625 191.847656 487.0625 187.628906 493.351563 C 185.589844 496.390625 182.105469 501.070313 181.207031 504.421875 L 178.292969 504.421875 C 177.703125 502.226563 167.378906 484.015625 163.710938 484.015625 C 160.558594 484.015625 158.851563 483.628906 158.851563 486.929688 L 158.851563 527.75 L 166.628906 527.75 L 166.628906 499.566406 C 171.0625 502.816406 175.800781 514.785156 180.238281 518.035156 Z M 180.238281 518.035156 "/>
<path style=" stroke:none;fill-rule:evenodd;fill:rgb(0%,0%,0%);fill-opacity:1;" d="M 364.921875 436.382813 C 362.917969 437.726563 362.398438 439.296875 360.0625 439.296875 L 336.734375 439.296875 L 336.734375 408.195313 C 325.746094 411.128906 328.957031 423.914063 328.957031 439.296875 L 308.546875 439.296875 C 309.578125 443.167969 313.386719 447.078125 318.265625 447.078125 L 359.089844 447.078125 C 369.816406 447.078125 372.796875 440.636719 372.722656 429.605469 C 372.652344 418.90625 372.699219 408.203125 372.699219 397.503906 C 361.632813 398.421875 364.921875 419.289063 364.921875 436.382813 Z M 364.921875 436.382813 "/>
<path style=" stroke:none;fill-rule:evenodd;fill:rgb(0%,0%,0%);fill-opacity:1;" d="M 232.726563 494.707031 C 232.726563 490.921875 235.21875 491.789063 241.476563 491.789063 C 250.8125 491.789063 251.4375 504.421875 238.558594 504.421875 C 231.804688 504.421875 232.726563 505.160156 232.726563 494.707031 Z M 256.054688 498.59375 C 256.054688 481.496094 237.421875 484.015625 224.949219 484.015625 C 222.128906 484.015625 223.613281 483.496094 222.730469 485.355469 C 221.390625 488.183594 222.621094 485.765625 223.730469 487.9375 C 223.859375 488.191406 224.328125 488.972656 224.4375 489.273438 C 225.03125 490.902344 224.761719 489.898438 224.960938 491.761719 C 225.3125 494.996094 224.953125 500.898438 224.949219 504.421875 C 224.949219 529.507813 222.5625 527.75 232.726563 527.75 C 232.726563 516.695313 231.160156 511.230469 235.644531 511.230469 C 240.476563 511.230469 239.277344 510.671875 243.71875 518.707031 C 245.433594 521.804688 247.546875 524.605469 248.277344 527.75 L 257.027344 527.75 C 256.3125 524.691406 254.160156 521.710938 252.46875 518.707031 C 250.507813 515.234375 248.664063 513.898438 248.277344 509.285156 C 252.199219 508.238281 256.054688 503.472656 256.054688 498.59375 Z M 256.054688 498.59375 "/>
<path style=" stroke:none;fill-rule:evenodd;fill:rgb(0%,0%,0%);fill-opacity:1;" d="M 45.125 509.285156 L 64.566406 509.285156 C 64.566406 530.199219 62.652344 527.75 72.34375 527.75 L 72.113281 486.117188 C 71.515625 484.367188 71.976563 484.976563 70.496094 484.332031 C 61.910156 480.601563 64.566406 493.722656 64.566406 501.511719 L 45.125 501.511719 C 45.125 485.558594 46.671875 483.984375 41.09375 484.078125 C 35.953125 484.164063 37.351563 486.921875 37.351563 486.929688 L 37.351563 527.75 L 45.125 527.75 Z M 45.125 509.285156 "/>
<path style=" stroke:none;fill-rule:evenodd;fill:rgb(0%,0%,0%);fill-opacity:1;" d="M 4.300781 435.410156 C 4.300781 441.246094 10.125 447.078125 15.964844 447.078125 L 68.453125 447.078125 C 81.480469 447.078125 80.117188 430.96875 80.117188 423.746094 C 80.117188 420.066406 77.851563 420.828125 72.34375 420.828125 C 72.34375 427.050781 73.925781 439.296875 67.480469 439.296875 C 55.578125 439.296875 22.464844 440.523438 13.046875 438.328125 C 11.394531 431.234375 12.078125 429.300781 12.078125 420.828125 L 4.300781 420.828125 Z M 4.300781 435.410156 "/>
<path style=" stroke:none;fill-rule:evenodd;fill:rgb(0%,0%,0%);fill-opacity:1;" d="M 136.492188 484.011719 C 132.789063 484.003906 125.046875 483.539063 121.917969 484.984375 C 123.726563 487.691406 125.804688 488.347656 125.804688 492.761719 L 125.804688 527.75 L 152.046875 527.75 L 152.046875 520.949219 L 133.582031 520.949219 L 133.582031 509.285156 C 145.105469 509.285156 151.078125 510.933594 151.078125 506.371094 C 151.078125 500.222656 153.074219 502.71875 139.25 502.269531 C 132.542969 502.046875 133.582031 503.835938 133.582031 491.789063 L 152.046875 491.789063 C 152.046875 481.917969 153.433594 484.046875 136.492188 484.011719 Z M 136.492188 484.011719 "/>
<path style=" stroke:none;fill-rule:evenodd;fill:rgb(0%,0%,0%);fill-opacity:1;" d="M 272.578125 510.257813 C 273.601563 505.871094 276.417969 501.03125 277.441406 496.648438 L 279.382813 496.648438 C 279.488281 501.386719 282.164063 505.496094 283.273438 510.257813 Z M 282.953125 488.222656 C 279.882813 479.960938 281.972656 486.414063 270.636719 484.015625 C 271.9375 494.152344 276.65625 478.777344 265.21875 508.730469 C 263.695313 512.707031 262.796875 514.765625 261.320313 518.4375 C 260.191406 521.246094 258.570313 525.3125 258 527.75 L 265.773438 527.75 C 267.128906 524.9375 268.890625 520.371094 269.664063 517.0625 L 286.1875 517.0625 C 287.121094 519.003906 289.574219 525.59375 290.078125 527.75 L 297.851563 527.75 C 297.414063 522.496094 291.632813 510.554688 289.515625 504.988281 Z M 282.953125 488.222656 "/>
<path style=" stroke:none;fill-rule:evenodd;fill:rgb(0%,0%,0%);fill-opacity:1;" d="M 107.335938 484.984375 C 98.074219 482.828125 81.875 485.003906 77.203125 484.015625 C 77.929688 489.679688 81.089844 488.328125 81.089844 492.761719 L 81.089844 511.230469 C 81.089844 524.152344 79.15625 527.75 83.035156 527.75 C 110.085938 527.75 107.335938 529.765625 107.335938 520.949219 L 88.867188 520.949219 L 88.867188 509.285156 L 105.390625 509.285156 C 105.390625 499.640625 108.785156 502.480469 88.867188 502.480469 L 88.867188 491.789063 C 109.328125 491.789063 107.335938 493.308594 107.335938 484.984375 Z M 107.335938 484.984375 "/>
<path style=" stroke:none;fill-rule:evenodd;fill:rgb(0%,0%,0%);fill-opacity:1;" d="M 340.585938 483.984375 C 333.472656 484.042969 330.875 485.039063 326.042969 484.015625 C 326.921875 490.894531 328.816406 484.988281 329.035156 493.65625 C 329.136719 497.746094 328.957031 502.222656 328.957031 506.371094 C 328.957031 515.894531 327.070313 527.75 331.875 527.75 C 351.59375 527.75 359.148438 530.507813 355.203125 520.949219 C 334.605469 520.949219 336.734375 523.292969 336.734375 512.203125 C 336.734375 504.753906 354.230469 513.820313 354.230469 506.371094 L 354.230469 502.480469 C 342.703125 502.480469 336.734375 504.128906 336.734375 499.566406 C 336.734375 489.871094 334.289063 491.789063 355.203125 491.789063 C 355.203125 481.28125 355.160156 485.289063 353.359375 484.449219 Z M 340.585938 483.984375 "/>
<path style=" stroke:none;fill-rule:evenodd;fill:rgb(0%,0%,0%);fill-opacity:1;" d="M 360.0625 496.648438 C 360.0625 511.191406 374.167969 505.449219 382.417969 514.144531 C 379.160156 528.125 362.179688 516.65625 360.0625 516.089844 L 360.0625 524.835938 C 375.628906 533.074219 390.195313 526.539063 390.195313 515.117188 C 390.195313 499.667969 367.839844 505.433594 367.839844 495.679688 C 367.839844 492.519531 371.960938 490.816406 374.644531 490.816406 C 381.113281 490.816406 383.796875 494.488281 388.25 495.679688 L 388.25 486.929688 C 385.90625 486.382813 372.375 479.609375 363.640625 487.59375 C 361.136719 489.878906 360.0625 492.230469 360.0625 496.648438 Z M 360.0625 496.648438 "/>
<path style=" stroke:none;fill-rule:evenodd;fill:rgb(0%,0%,0%);fill-opacity:1;" d="M 307.570313 484.011719 L 290.078125 484.015625 C 290.515625 487.421875 290.480469 487.132813 292.628906 489.234375 C 296.207031 492.734375 296.171875 491.789063 304.65625 491.789063 L 304.65625 527.75 L 312.433594 527.75 L 312.433594 491.789063 C 320.722656 491.789063 324.097656 492.933594 324.097656 488.871094 C 324.097656 481.746094 315.691406 484.023438 307.570313 484.011719 Z M 307.570313 484.011719 "/>
<path style=" stroke:none;fill-rule:evenodd;fill:rgb(0%,0%,0%);fill-opacity:1;" d="M 30.140625 484.203125 L 9.160156 484.015625 L 4.003906 484.097656 C 0.617188 484.09375 0.0664063 483.128906 0.09375 485.632813 C 0.105469 486.558594 5.097656 491.789063 7.214844 491.789063 L 14.019531 491.789063 L 14.019531 527.75 L 21.796875 527.75 L 21.796875 491.789063 C 30.089844 491.789063 33.460938 492.933594 33.460938 488.871094 C 33.460938 482.632813 32.097656 484.359375 30.140625 484.203125 Z M 30.140625 484.203125 "/>
<path style=" stroke:none;fill-rule:evenodd;fill:rgb(0%,0%,0%);fill-opacity:1;" d="M 88.867188 453.882813 C 89.695313 463.832031 100.535156 461.65625 108.308594 461.65625 C 123.253906 461.65625 119 433.894531 119 418.886719 C 101.109375 423.664063 120.285156 453.273438 105.492188 453.980469 C 100.417969 454.222656 94.101563 453.882813 88.867188 453.882813 Z M 88.867188 453.882813 "/>
<path style=" stroke:none;fill-rule:evenodd;fill:rgb(0%,0%,0%);fill-opacity:1;" d="M 379.503906 409.164063 L 379.503906 444.160156 C 379.503906 448.429688 388.25 448.429688 388.25 444.160156 L 388.25 399.445313 C 388.25 392.898438 379.503906 401.257813 379.503906 409.164063 Z M 379.503906 409.164063 "/>
<path style=" stroke:none;fill-rule:evenodd;fill:rgb(0%,0%,0%);fill-opacity:1;" d="M 87.894531 406.246094 L 87.894531 444.160156 C 87.894531 446.398438 88.570313 447.078125 90.808594 447.078125 L 95.671875 447.078125 L 95.671875 397.503906 C 91.761719 398.546875 87.894531 401.242188 87.894531 406.246094 Z M 87.894531 406.246094 "/>
<path style=" stroke:none;fill-rule:evenodd;fill:rgb(0%,0%,0%);fill-opacity:1;" d="M 208.425781 527.75 L 216.203125 527.75 L 216.203125 486.929688 C 216.203125 484.054688 214.976563 484.03125 212.167969 484.078125 C 207.03125 484.164063 208.425781 486.921875 208.425781 486.929688 Z M 208.425781 527.75 "/>
<path style=" stroke:none;fill-rule:evenodd;fill:rgb(0%,0%,0%);fill-opacity:1;" d="M 327.011719 455.824219 L 327.011719 458.742188 C 319.105469 458.742188 319.359375 458.148438 319.238281 463.601563 C 325.3125 463.601563 336.734375 464.914063 336.734375 461.65625 C 336.734375 456.609375 334.203125 461.304688 330.902344 456.792969 C 335.226563 454.722656 336.734375 457.257813 336.734375 451.9375 C 331.988281 449.269531 327.011719 452.601563 327.011719 455.824219 Z M 327.011719 455.824219 "/>
<path style=" stroke:none;fill-rule:evenodd;fill:rgb(0%,0%,0%);fill-opacity:1;" d="M 45.125 417.914063 C 45.71875 418.800781 46.65625 420.367188 47.582031 421.289063 C 48.507813 422.21875 50.074219 423.15625 50.957031 423.746094 L 56.007813 418.097656 C 52.171875 411.527344 50.09375 408.527344 45.125 417.914063 Z M 45.125 417.914063 "/>
<path style=" stroke:none;fill-rule:evenodd;fill:rgb(0%,0%,0%);fill-opacity:1;" d="M 28.601563 416.945313 C 28.601563 420.164063 31.484375 422.421875 33.460938 423.746094 C 39.996094 419.371094 39.996094 416.460938 33.460938 412.078125 C 32.402344 412.789063 28.601563 415.59375 28.601563 416.945313 Z M 28.601563 416.945313 "/>
</g>
</svg>
