<?xml version="1.0" encoding="UTF-8"?>
<svg xmlns="http://www.w3.org/2000/svg" xmlns:xlink="http://www.w3.org/1999/xlink" width="16px" height="16px" viewBox="0 0 12 12" version="1.1">
<path style=" stroke:none;fill-rule:nonzero;fill:#898989;fill-opacity:1;" d="M 11.378906 5.304688 L 6.367188 0.292969 C 6.171875 0.0976562 5.9375 0 5.667969 0 C 5.398438 0 5.167969 0.0976562 4.972656 0.292969 L 4.394531 0.871094 C 4.199219 1.054688 4.105469 1.285156 4.105469 1.5625 C 4.105469 1.839844 4.199219 2.070312 4.394531 2.253906 L 6.652344 4.519531 L 1.230469 4.519531 C 0.964844 4.519531 0.746094 4.617188 0.582031 4.808594 C 0.414062 5 0.332031 5.234375 0.332031 5.503906 L 0.332031 6.492188 C 0.332031 6.761719 0.414062 6.996094 0.582031 7.1875 C 0.746094 7.378906 0.964844 7.476562 1.230469 7.476562 L 6.652344 7.476562 L 4.394531 9.730469 C 4.199219 9.925781 4.101562 10.160156 4.101562 10.433594 C 4.101562 10.703125 4.199219 10.9375 4.394531 11.132812 L 4.972656 11.710938 C 5.171875 11.898438 5.40625 11.996094 5.667969 11.996094 C 5.933594 11.996094 6.167969 11.898438 6.367188 11.710938 L 11.378906 6.699219 C 11.570312 6.507812 11.664062 6.273438 11.664062 5.996094 C 11.664062 5.714844 11.570312 5.484375 11.378906 5.304688 Z M 11.378906 5.304688 "/>
</svg>